#!OML:ASF E:\emotionWalksFemale\Project 1\Capture day 1\Session 1\Female1.ASF
:FULLY-SPECIFIED
:DEGREES
295
root 7.91246 15.118 39.3297 182.386 -3.24982 -180.776
lowerback 9.99462 -0.570913 -1.45968
upperback -4.29774 -1.03206 -0.071265
thorax -10.2129 -0.423086 0.941855
lowerneck -7.66287 -2.41894 -5.1598
upperneck 15.6576 -3.73812 4.0115
head 6.17139 -2.01294 1.81738
rclavicle 4.76773e-016 1.21756e-015
rhumerus -47.2037 7.7939 -78.7263
rradius 42.5493
rwrist -6.83355
rhand -1.48556 -48.2355
rfingers 7.12502
rthumb -155.833 463.267
lclavicle 4.76773e-016 1.21756e-015
lhumerus -21.9272 -9.0407 85.8477
lradius 33.1931
lwrist -4.98513
lhand -10.7327 -34.8466
lfingers 7.12502
lthumb 15.278 -5.43089
rfemur -37.2953 5.98964 21.9808
rtibia 41.4213
rfoot -23.9891 -20.4555
rtoes -3.45874
lfemur 13.9947 -23.1089 -32.2722
ltibia 4.01981
lfoot -19.6285 21.5104
ltoes -10.2509
296
root 7.92106 15.0973 39.2368 182.417 -3.05661 -180.827
lowerback 10.0211 -0.610146 -1.54761
upperback -4.3882 -1.10107 -0.0506689
thorax -10.3255 -0.44956 1.02797
lowerneck -7.49194 -2.27652 -5.19244
upperneck 15.5112 -3.54764 4.06155
head 6.08745 -1.92003 1.85601
rclavicle -9.93302e-015 1.19271e-015
rhumerus -48.7099 7.77745 -78.5551
rradius 42.6861
rwrist -7.12149
rhand -0.939928 -48.4266
rfingers 7.12502
rthumb -155.31 463.146
lclavicle -9.93302e-015 1.19271e-015
lhumerus -21.0112 -9.09779 85.7755
lradius 33.5239
lwrist -4.20672
lhand -10.2148 -34.7031
lfingers 7.12502
lthumb 15.7768 -5.32601
rfemur -36.9582 6.51673 21.7475
rtibia 40.4812
rfoot -24.2791 -20.6086
rtoes -2.72968
lfemur 15.4956 -22.7014 -32.3671
ltibia 1.85964
lfoot -18.9014 21.2152
ltoes -8.69911
297
root 7.92684 15.0847 39.1373 182.575 -3.0522 -180.982
lowerback 9.84636 -0.698818 -1.73557
upperback -4.4987 -1.25053 -0.0321143
thorax -10.3363 -0.510389 1.18003
lowerneck -7.44994 -2.13626 -5.01845
upperneck 15.6395 -3.33751 3.6966
head 6.1019 -1.84087 1.72771
rclavicle -2.53402e-015 3.73964e-015
rhumerus -49.8873 7.70904 -78.3897
rradius 42.4446
rwrist -7.36828
rhand -0.501488 -48.5187
rfingers 7.12502
rthumb -154.89 463.112
lclavicle -2.53402e-015 3.73964e-015
lhumerus -20.1873 -9.21279 85.7558
lradius 33.9338
lwrist -3.44964
lhand -9.88244 -34.612
lfingers 7.12502
lthumb 16.0969 -5.26053
rfemur -36.6929 6.79922 21.4004
rtibia 39.6851
rfoot -24.1373 -20.7638
rtoes -2.58694
lfemur 16.7355 -22.5148 -32.4923
ltibia 3.81667e-014
lfoot -18.2644 20.8888
ltoes -7.54862
298
root 7.93554 15.0739 39.0364 182.805 -3.15613 -181.053
lowerback 9.47686 -0.832051 -1.75978
upperback -4.54417 -1.43342 -0.0469714
thorax -10.1608 -0.602337 1.20428
lowerneck -7.84521 -2.03448 -4.90135
upperneck 15.8516 -3.19706 3.68479
head 6.22894 -1.76241 1.71146
rclavicle 6.08759e-015 7.82715e-016
rhumerus -51.1898 7.73777 -78.3522
rradius 42.4299
rwrist -7.86757
rhand -0.499667 -48.4584
rfingers 7.12502
rthumb -154.888 463.173
lclavicle 6.08759e-015 7.82715e-016
lhumerus -19.2805 -9.10497 85.6507
lradius 34.3284
lwrist -3.11342
lhand -10.1025 -34.5635
lfingers 7.12502
lthumb 15.885 -5.19503
rfemur -36.5131 6.87484 21.2152
rtibia 39.1427
rfoot -23.8266 -20.7791
rtoes -2.7443
lfemur 16.9467 -22.4484 -32.542
ltibia 3.97569e-014
lfoot -18.3472 20.7263
ltoes -7.62315
299
root 7.94781 15.0609 38.9372 182.942 -3.22823 -180.923
lowerback 9.25127 -0.933916 -1.58399
upperback -4.57069 -1.54398 -0.0313884
thorax -10.056 -0.669597 1.13718
lowerneck -7.84502 -1.96239 -4.8468
upperneck 15.6933 -3.0944 3.72332
head 6.17383 -1.70113 1.7234
rclavicle 4.01607e-015 1.52195e-015
rhumerus -52.5642 7.67831 -78.338
rradius 42.3969
rwrist -8.3511
rhand -0.669329 -48.5107
rfingers 7.12502
rthumb -155.051 463.098
lclavicle 4.01607e-015 1.52195e-015
lhumerus -18.4015 -9.45596 85.536
lradius 34.8624
lwrist -2.25523
lhand -10.3407 -34.4901
lfingers 7.12502
lthumb 15.6555 -5.10355
rfemur -36.1974 6.98324 21.3128
rtibia 38.7
rfoot -23.9306 -20.7119
rtoes -1.55228
lfemur 17.2323 -22.325 -32.4127
ltibia 6.36111e-015
lfoot -18.4262 20.6102
ltoes -7.80301
300
root 7.95842 15.0434 38.8282 182.697 -3.42281 -181.181
lowerback 9.3442 -1.03326 -1.78925
upperback -4.47516 -1.7096 -0.121604
thorax -9.9982 -0.73864 1.1857
lowerneck -7.78963 -2.45629 -4.63931
upperneck 15.6299 -2.81324 3.49131
head 6.13424 -1.18449 1.67858
rclavicle 7.90441e-015 1.92573e-016
rhumerus -53.8534 7.50081 -78.2812
rradius 42.1867
rwrist -8.6694
rhand -0.755164 -48.8726
rfingers 7.12502
rthumb -155.133 462.725
lclavicle 7.90441e-015 1.92573e-016
lhumerus -17.5046 -9.97384 85.4486
lradius 35.3836
lwrist -1.21224
lhand -10.3879 -34.6841
lfingers 7.12502
lthumb 15.6101 -5.29401
rfemur -35.356 6.88914 21.0451
rtibia 38.3722
rfoot -24.3461 -20.5906
rtoes 0.308568
lfemur 18.0051 -22.234 -32.9194
ltibia 5.725e-014
lfoot -18.3655 20.6101
ltoes -8.84668
301
root 7.97215 15.0263 38.728 182.8 -3.45767 -181.031
lowerback 9.20449 -1.13463 -1.6522
upperback -4.49612 -1.81996 -0.0533269
thorax -9.93643 -0.799813 1.19779
lowerneck -8.01797 -2.36894 -4.66651
upperneck 15.647 -2.71443 3.63936
head 6.17702 -1.12866 1.73589
rclavicle -1.89804e-014 -6.97299e-015
rhumerus -55.1456 7.62358 -78.3156
rradius 42.037
rwrist -9.01945
rhand -0.696185 -49.2231
rfingers 7.12502
rthumb -155.077 462.382
lclavicle -1.89804e-014 -6.97299e-015
lhumerus -16.5408 -10.1987 85.3497
lradius 35.6878
lwrist -0.447196
lhand -10.8045 -34.8922
lfingers 7.12502
lthumb 15.2088 -5.47116
rfemur -34.9362 7.02346 21.1961
rtibia 38.0514
rfoot -24.2793 -20.6905
rtoes 0.943228
lfemur 18.3042 -22.0655 -32.781
ltibia -9.85972e-014
lfoot -18.1556 20.7271
ltoes -10.9533
302
root 7.99126 15.0099 38.6237 183.039 -3.44784 -180.973
lowerback 8.86318 -1.24381 -1.7552
upperback -4.56194 -1.96882 0.0748886
thorax -9.79421 -0.864702 1.40986
lowerneck -8.09908 -2.22176 -4.7978
upperneck 15.6422 -2.50373 3.68795
head 6.18265 -1.03201 1.78897
rclavicle -5.62033e-015 5.7896e-015
rhumerus -56.5423 8.05104 -78.4193
rradius 41.9987
rwrist -9.46848
rhand -0.681699 -49.4409
rfingers 7.12502
rthumb -155.063 462.166
lclavicle -5.62033e-015 5.7896e-015
lhumerus -15.7326 -10.3395 85.2629
lradius 36.2049
lwrist 0.432963
lhand -11.3105 -35.1053
lfingers 7.12502
lthumb 14.7214 -5.64801
rfemur -34.6565 7.2382 21.2307
rtibia 37.8208
rfoot -24.3284 -20.6541
rtoes 2.61291
lfemur 18.4858 -21.8864 -32.6799
ltibia -8.26944e-014
lfoot -17.8472 20.8929
ltoes -13.5736
